<svg id="Grupo_1014" data-name="Grupo 1014" xmlns="http://www.w3.org/2000/svg" width="105.744" height="32" viewBox="0 0 105.744 32">
  <g id="Fiat_LOGO" data-name="Fiat LOGO" transform="translate(59.94)">
    <g id="Grupo_909" data-name="Grupo 909">
      <path id="Caminho_146" data-name="Caminho 146" d="M688.931,300h-9.5v31.981h4.335V317.534h4.78c.426,2.641.464,13.592.464,14.447H693.4c.135-8.116.058-23.243-4.47-31.981m-5.225,13.825V303.65h2.322a27.551,27.551,0,0,1,1.761,6.311c.368,2.1.561,3.864.561,3.864Z" transform="translate(-659.174 -300)" fill="#edede3"/>
      <rect id="Retângulo_55" data-name="Retângulo 55" width="4.761" height="32" transform="translate(12.062 0)" fill="#edede3"/>
      <path id="Caminho_147" data-name="Caminho 147" d="M299.581,300v32h4.761V317.515h3.483v-3.709h-3.483V303.69h4.47V300Z" transform="translate(-299.581 -300.001)" fill="#edede3"/>
      <path id="Caminho_148" data-name="Caminho 148" d="M941.894,300v3.689H945.3l.019,28.291h4.693V303.69h3.435V300Z" transform="translate(-907.643 -300.001)" fill="#edede3"/>
    </g>
  </g>
  <g id="Fiat_Flag" data-name="Fiat Flag" transform="translate(0 0)">
    <path id="Caminho_149" data-name="Caminho 149" d="M507.048,300.235l-10.383,32h4.806l10.383-32Z" transform="translate(-487.052 -300.235)" fill="#edede3"/>
    <path id="Caminho_150" data-name="Caminho 150" d="M326.952,300.235l-10.383,32h4.806l10.383-32Z" transform="translate(-316.57 -300.235)" fill="#268f52"/>
    <path id="Caminho_151" data-name="Caminho 151" d="M687.143,300.235l-10.383,32h4.806l10.383-32Z" transform="translate(-657.535 -300.235)" fill="#edede3"/>
    <path id="Caminho_152" data-name="Caminho 152" d="M867.239,300.235l-10.383,32h4.806l10.383-32Z" transform="translate(-828.018 -300.235)" fill="#ff1430"/>
  </g>
</svg>
